<svg xmlns="http://www.w3.org/2000/svg" xml:space="preserve" width="2.66666in" height="2.66666in" version="1.1" style="shape-rendering:geometricPrecision; text-rendering:geometricPrecision; image-rendering:optimizeQuality; fill-rule:evenodd; clip-rule:evenodd" viewBox="0 0 2666.66 2666.66" xmlns:xlink="http://www.w3.org/1999/xlink" xmlns:xodm="http://www.corel.com/coreldraw/odm/2003">
<defs>
<style type="text/css">
   
    .fil1 {fill:#FEFEFE}
    .fil0 {fill:#E9225B}
   
  </style>
</defs>
<g id="Layer_x0020_1">
<metadata id="CorelCorpID_0Corel-Layer"></metadata>
<circle class="fil0" cx="1333.33" cy="1333.33" r="1333.33" id="id_101" style="fill: rgb(38, 150, 173);"></circle>
<path class="fil1" d="M1956.46 2186.67l-1246.27 0c-125.33,0 -227.29,-101.97 -227.29,-227.29l0 -1130.85c0,-125.39 101.89,-227.29 227.29,-227.29l75.5 0 0 163.24c0,90.49 137.35,90.35 137.35,0l0 -163.24 181.91 0 0 163.24c0,90.43 137.35,90.44 137.35,0l0 -163.24 182.06 0 0 163.24c0,37.91 30.77,68.67 68.67,68.67 37.9,0 68.67,-30.77 68.67,-68.67l0 -163.24 181.91 0 0 163.24c0,90.35 137.35,90.49 137.35,0l0 -163.24 75.5 0c125.39,0 227.29,101.9 227.29,227.29l0 1130.85c0,125.33 -101.97,227.28 -227.29,227.28zm155.34 -1237l-1556.95 0 0 1009.72c0,85.67 69.66,155.34 155.34,155.34l1246.27 -0c85.68,0 155.34,-69.67 155.34,-155.34l0 -1009.72z" id="id_102"></path>
<path class="fil1" d="M854.37 800.45c-19.93,0 -35.97,-16.05 -35.97,-35.97l0 -248.95c0,-47.37 71.94,-47.37 71.94,0l0 248.95c0,19.86 -16.13,35.97 -35.97,35.97zm319.26 0c-19.92,0 -35.97,-16.05 -35.97,-35.97l0 -248.95c0,-47.37 71.94,-47.37 71.94,0l0 248.95c0,19.93 -16.04,35.97 -35.97,35.97zm319.41 0c-19.85,0 -35.97,-16.11 -35.97,-35.97l0 -248.95c0,-47.38 71.94,-47.38 71.94,0l0 248.95c0,19.86 -16.13,35.97 -35.97,35.97zm319.26 0c-19.85,0 -35.97,-16.11 -35.97,-35.97l0 -248.95c0,-47.38 71.94,-47.38 71.94,0l0 248.95c0,19.93 -16.05,35.97 -35.97,35.97z" id="id_103"></path>
<path class="fil1" d="M1466.6 1371.26l-266.54 0c-10.9,0 -19.62,-8.85 -19.62,-19.62l0 -52.87c0,-34.06 27.66,-61.73 61.73,-61.73l182.46 0c34.07,0 61.73,27.66 61.73,61.73l0 52.87c-0.13,10.77 -8.85,19.62 -19.76,19.62z" id="id_104"></path>
<path class="fil1" d="M1228.41 1278.47c-16.79,0 -25.91,-20.06 -14.58,-32.7 54.52,-60.85 -0.13,-127.74 33.79,-197.85 0.82,-1.63 1.78,-3.13 2.86,-4.5 56.14,-65.41 109.56,-65.41 165.7,0 18.25,20.79 14.65,77.46 12.81,99.33 -3.13,37.47 -6,69.76 23.85,103.01 17.22,19.18 -11.94,45.36 -29.16,26.16 -3.43,-3.83 -6.54,-7.66 -9.36,-11.48l-158.66 -4.3c-6.2,9.1 -14.69,22.32 -27.25,22.32z" id="id_105"></path>
<path class="fil1" d="M1458.96 2085.97l-251.41 0c-76.04,0 -138.03,-61.86 -138.03,-138.03l-0 -478.02c0,-76.04 61.86,-138.04 138.03,-138.04l251.41 0c76.04,0 138.04,61.86 138.04,138.04l0 478.01c0,76.17 -61.86,138.04 -138.04,138.04zm-198.13 -540.08l-138.85 0c-25.83,0 -25.83,-39.24 0,-39.24l138.85 0c25.89,0 25.74,39.24 0,39.24zm0 91.3l-138.85 0c-25.83,0 -25.83,-39.24 0,-39.24l138.85 0c25.89,0 25.74,39.24 0,39.24zm0 91.3l-138.85 0c-25.83,0 -25.83,-39.24 0,-39.24l138.85 0c25.89,0 25.74,39.24 0,39.24zm0 91.43l-138.85 0c-25.83,0 -25.83,-39.24 0,-39.24l138.85 0c25.89,0 25.74,39.24 0,39.24zm0 91.3l-138.85 0c-25.83,0 -25.83,-39.24 0,-39.24l138.85 0c25.89,0 25.74,39.24 0,39.24z" id="id_106"></path>
</g>
</svg>